  0
SECTION
  2
BLOCKS
  0
ENDSEC
  0
SECTION
  2
ENTITIES
  0
LINE
  8
0
 10
-103.061
 20
-109.609
 11
-27.0615
 21
-69.609
  0
LINE
  8
0
 10
-27.0615
 20
-69.609
 11
-25.5607
 21
-69.1537
  0
LINE
  8
0
 10
-25.5607
 20
-69.1537
 11
-24
 21
-69
  0
LINE
  8
0
 10
-24
 20
-69
 11
24
 21
-69
  0
LINE
  8
0
 10
24
 20
-69
 11
25.5607
 21
-69.1537
  0
LINE
  8
0
 10
25.5607
 20
-69.1537
 11
27.0615
 21
-69.609
  0
LINE
  8
0
 10
27.0615
 20
-69.609
 11
103.061
 21
-109.609
  0
LINE
  8
0
 10
103.061
 20
-109.609
 11
103.793
 21
-110
  0
LINE
  8
0
 10
103.793
 20
-110
 11
110
 21
-110
  0
LINE
  8
0
 10
110
 20
-110
 11
110
 21
110
  0
LINE
  8
0
 10
110
 20
110
 11
103.793
 21
110
  0
LINE
  8
0
 10
103.793
 20
110
 11
103.061
 21
109.609
  0
LINE
  8
0
 10
103.061
 20
109.609
 11
27.0615
 21
69.609
  0
LINE
  8
0
 10
27.0615
 20
69.609
 11
25.5607
 21
69.1537
  0
LINE
  8
0
 10
25.5607
 20
69.1537
 11
24
 21
69
  0
LINE
  8
0
 10
24
 20
69
 11
-24
 21
69
  0
LINE
  8
0
 10
-24
 20
69
 11
-25.5607
 21
69.1537
  0
LINE
  8
0
 10
-25.5607
 20
69.1537
 11
-27.0615
 21
69.609
  0
LINE
  8
0
 10
-27.0615
 20
69.609
 11
-103.061
 21
109.609
  0
LINE
  8
0
 10
-103.061
 20
109.609
 11
-103.793
 21
110
  0
LINE
  8
0
 10
-103.793
 20
110
 11
-110
 21
110
  0
LINE
  8
0
 10
-110
 20
110
 11
-110
 21
-110
  0
LINE
  8
0
 10
-110
 20
-110
 11
-103.793
 21
-110
  0
LINE
  8
0
 10
-103.793
 20
-110
 11
-103.061
 21
-109.609
  0
LINE
  8
0
 10
-104.493
 20
102.929
 11
-104.774
 21
103.014
  0
LINE
  8
0
 10
-104.774
 20
103.014
 11
-105.033
 21
103.153
  0
LINE
  8
0
 10
-105.033
 20
103.153
 11
-105.261
 21
103.339
  0
LINE
  8
0
 10
-105.261
 20
103.339
 11
-105.447
 21
103.567
  0
LINE
  8
0
 10
-105.447
 20
103.567
 11
-105.586
 21
103.826
  0
LINE
  8
0
 10
-105.586
 20
103.826
 11
-105.671
 21
104.107
  0
LINE
  8
0
 10
-105.671
 20
104.107
 11
-105.7
 21
104.4
  0
LINE
  8
0
 10
-105.7
 20
104.4
 11
-105.671
 21
104.693
  0
LINE
  8
0
 10
-105.671
 20
104.693
 11
-105.586
 21
104.974
  0
LINE
  8
0
 10
-105.586
 20
104.974
 11
-105.447
 21
105.233
  0
LINE
  8
0
 10
-105.447
 20
105.233
 11
-105.261
 21
105.461
  0
LINE
  8
0
 10
-105.261
 20
105.461
 11
-105.033
 21
105.647
  0
LINE
  8
0
 10
-105.033
 20
105.647
 11
-104.774
 21
105.786
  0
LINE
  8
0
 10
-104.774
 20
105.786
 11
-104.493
 21
105.871
  0
LINE
  8
0
 10
-104.493
 20
105.871
 11
-104.2
 21
105.9
  0
LINE
  8
0
 10
-104.2
 20
105.9
 11
-103.907
 21
105.871
  0
LINE
  8
0
 10
-103.907
 20
105.871
 11
-103.626
 21
105.786
  0
LINE
  8
0
 10
-103.626
 20
105.786
 11
-103.367
 21
105.647
  0
LINE
  8
0
 10
-103.367
 20
105.647
 11
-103.139
 21
105.461
  0
LINE
  8
0
 10
-103.139
 20
105.461
 11
-102.953
 21
105.233
  0
LINE
  8
0
 10
-102.953
 20
105.233
 11
-102.814
 21
104.974
  0
LINE
  8
0
 10
-102.814
 20
104.974
 11
-102.729
 21
104.693
  0
LINE
  8
0
 10
-102.729
 20
104.693
 11
-102.7
 21
104.4
  0
LINE
  8
0
 10
-102.7
 20
104.4
 11
-102.729
 21
104.107
  0
LINE
  8
0
 10
-102.729
 20
104.107
 11
-102.814
 21
103.826
  0
LINE
  8
0
 10
-102.814
 20
103.826
 11
-102.953
 21
103.567
  0
LINE
  8
0
 10
-102.953
 20
103.567
 11
-103.139
 21
103.339
  0
LINE
  8
0
 10
-103.139
 20
103.339
 11
-103.367
 21
103.153
  0
LINE
  8
0
 10
-103.367
 20
103.153
 11
-103.626
 21
103.014
  0
LINE
  8
0
 10
-103.626
 20
103.014
 11
-103.907
 21
102.929
  0
LINE
  8
0
 10
-103.907
 20
102.929
 11
-104.2
 21
102.9
  0
LINE
  8
0
 10
-104.2
 20
102.9
 11
-104.493
 21
102.929
  0
LINE
  8
0
 10
103.907
 20
102.929
 11
103.626
 21
103.014
  0
LINE
  8
0
 10
103.626
 20
103.014
 11
103.367
 21
103.153
  0
LINE
  8
0
 10
103.367
 20
103.153
 11
103.139
 21
103.339
  0
LINE
  8
0
 10
103.139
 20
103.339
 11
102.953
 21
103.567
  0
LINE
  8
0
 10
102.953
 20
103.567
 11
102.814
 21
103.826
  0
LINE
  8
0
 10
102.814
 20
103.826
 11
102.729
 21
104.107
  0
LINE
  8
0
 10
102.729
 20
104.107
 11
102.7
 21
104.4
  0
LINE
  8
0
 10
102.7
 20
104.4
 11
102.729
 21
104.693
  0
LINE
  8
0
 10
102.729
 20
104.693
 11
102.814
 21
104.974
  0
LINE
  8
0
 10
102.814
 20
104.974
 11
102.953
 21
105.233
  0
LINE
  8
0
 10
102.953
 20
105.233
 11
103.139
 21
105.461
  0
LINE
  8
0
 10
103.139
 20
105.461
 11
103.367
 21
105.647
  0
LINE
  8
0
 10
103.367
 20
105.647
 11
103.626
 21
105.786
  0
LINE
  8
0
 10
103.626
 20
105.786
 11
103.907
 21
105.871
  0
LINE
  8
0
 10
103.907
 20
105.871
 11
104.2
 21
105.9
  0
LINE
  8
0
 10
104.2
 20
105.9
 11
104.493
 21
105.871
  0
LINE
  8
0
 10
104.493
 20
105.871
 11
104.774
 21
105.786
  0
LINE
  8
0
 10
104.774
 20
105.786
 11
105.033
 21
105.647
  0
LINE
  8
0
 10
105.033
 20
105.647
 11
105.261
 21
105.461
  0
LINE
  8
0
 10
105.261
 20
105.461
 11
105.447
 21
105.233
  0
LINE
  8
0
 10
105.447
 20
105.233
 11
105.586
 21
104.974
  0
LINE
  8
0
 10
105.586
 20
104.974
 11
105.671
 21
104.693
  0
LINE
  8
0
 10
105.671
 20
104.693
 11
105.7
 21
104.4
  0
LINE
  8
0
 10
105.7
 20
104.4
 11
105.671
 21
104.107
  0
LINE
  8
0
 10
105.671
 20
104.107
 11
105.586
 21
103.826
  0
LINE
  8
0
 10
105.586
 20
103.826
 11
105.447
 21
103.567
  0
LINE
  8
0
 10
105.447
 20
103.567
 11
105.261
 21
103.339
  0
LINE
  8
0
 10
105.261
 20
103.339
 11
105.033
 21
103.153
  0
LINE
  8
0
 10
105.033
 20
103.153
 11
104.774
 21
103.014
  0
LINE
  8
0
 10
104.774
 20
103.014
 11
104.493
 21
102.929
  0
LINE
  8
0
 10
104.493
 20
102.929
 11
104.2
 21
102.9
  0
LINE
  8
0
 10
104.2
 20
102.9
 11
103.907
 21
102.929
  0
LINE
  8
0
 10
46.6098
 20
69.0384
 11
46.2346
 21
69.1522
  0
LINE
  8
0
 10
46.2346
 20
69.1522
 11
45.8889
 21
69.3371
  0
LINE
  8
0
 10
45.8889
 20
69.3371
 11
45.5858
 21
69.5858
  0
LINE
  8
0
 10
45.5858
 20
69.5858
 11
45.3371
 21
69.8889
  0
LINE
  8
0
 10
45.3371
 20
69.8889
 11
45.1522
 21
70.2346
  0
LINE
  8
0
 10
45.1522
 20
70.2346
 11
45.0384
 21
70.6098
  0
LINE
  8
0
 10
45.0384
 20
70.6098
 11
45
 21
71
  0
LINE
  8
0
 10
45
 20
71
 11
45.0384
 21
71.3902
  0
LINE
  8
0
 10
45.0384
 20
71.3902
 11
45.1522
 21
71.7654
  0
LINE
  8
0
 10
45.1522
 20
71.7654
 11
45.3371
 21
72.1111
  0
LINE
  8
0
 10
45.3371
 20
72.1111
 11
45.5858
 21
72.4142
  0
LINE
  8
0
 10
45.5858
 20
72.4142
 11
45.8889
 21
72.6629
  0
LINE
  8
0
 10
45.8889
 20
72.6629
 11
46.2346
 21
72.8477
  0
LINE
  8
0
 10
46.2346
 20
72.8477
 11
46.6098
 21
72.9616
  0
LINE
  8
0
 10
46.6098
 20
72.9616
 11
47
 21
73
  0
LINE
  8
0
 10
47
 20
73
 11
47.3902
 21
72.9616
  0
LINE
  8
0
 10
47.3902
 20
72.9616
 11
47.7654
 21
72.8477
  0
LINE
  8
0
 10
47.7654
 20
72.8477
 11
48.1111
 21
72.6629
  0
LINE
  8
0
 10
48.1111
 20
72.6629
 11
48.4142
 21
72.4142
  0
LINE
  8
0
 10
48.4142
 20
72.4142
 11
48.6629
 21
72.1111
  0
LINE
  8
0
 10
48.6629
 20
72.1111
 11
48.8477
 21
71.7654
  0
LINE
  8
0
 10
48.8477
 20
71.7654
 11
48.9616
 21
71.3902
  0
LINE
  8
0
 10
48.9616
 20
71.3902
 11
49
 21
71
  0
LINE
  8
0
 10
49
 20
71
 11
48.9616
 21
70.6098
  0
LINE
  8
0
 10
48.9616
 20
70.6098
 11
48.8477
 21
70.2346
  0
LINE
  8
0
 10
48.8477
 20
70.2346
 11
48.6629
 21
69.8889
  0
LINE
  8
0
 10
48.6629
 20
69.8889
 11
48.4142
 21
69.5858
  0
LINE
  8
0
 10
48.4142
 20
69.5858
 11
48.1111
 21
69.3371
  0
LINE
  8
0
 10
48.1111
 20
69.3371
 11
47.7654
 21
69.1522
  0
LINE
  8
0
 10
47.7654
 20
69.1522
 11
47.3902
 21
69.0384
  0
LINE
  8
0
 10
47.3902
 20
69.0384
 11
47
 21
69
  0
LINE
  8
0
 10
47
 20
69
 11
46.6098
 21
69.0384
  0
LINE
  8
0
 10
-30.4877
 20
61.048
 11
-30.9567
 21
61.1903
  0
LINE
  8
0
 10
-30.9567
 20
61.1903
 11
-31.3889
 21
61.4213
  0
LINE
  8
0
 10
-31.3889
 20
61.4213
 11
-31.7678
 21
61.7322
  0
LINE
  8
0
 10
-31.7678
 20
61.7322
 11
-32.0787
 21
62.1111
  0
LINE
  8
0
 10
-32.0787
 20
62.1111
 11
-32.3097
 21
62.5433
  0
LINE
  8
0
 10
-32.3097
 20
62.5433
 11
-32.452
 21
63.0123
  0
LINE
  8
0
 10
-32.452
 20
63.0123
 11
-32.5
 21
63.5
  0
LINE
  8
0
 10
-32.5
 20
63.5
 11
-32.452
 21
63.9877
  0
LINE
  8
0
 10
-32.452
 20
63.9877
 11
-32.3097
 21
64.4567
  0
LINE
  8
0
 10
-32.3097
 20
64.4567
 11
-32.0787
 21
64.8889
  0
LINE
  8
0
 10
-32.0787
 20
64.8889
 11
-31.7678
 21
65.2678
  0
LINE
  8
0
 10
-31.7678
 20
65.2678
 11
-31.3889
 21
65.5787
  0
LINE
  8
0
 10
-31.3889
 20
65.5787
 11
-30.9567
 21
65.8097
  0
LINE
  8
0
 10
-30.9567
 20
65.8097
 11
-30.4877
 21
65.952
  0
LINE
  8
0
 10
-30.4877
 20
65.952
 11
-30
 21
66
  0
LINE
  8
0
 10
-30
 20
66
 11
-29.5123
 21
65.952
  0
LINE
  8
0
 10
-29.5123
 20
65.952
 11
-29.0433
 21
65.8097
  0
LINE
  8
0
 10
-29.0433
 20
65.8097
 11
-28.6111
 21
65.5787
  0
LINE
  8
0
 10
-28.6111
 20
65.5787
 11
-28.2322
 21
65.2678
  0
LINE
  8
0
 10
-28.2322
 20
65.2678
 11
-27.9213
 21
64.8889
  0
LINE
  8
0
 10
-27.9213
 20
64.8889
 11
-27.6903
 21
64.4567
  0
LINE
  8
0
 10
-27.6903
 20
64.4567
 11
-27.548
 21
63.9877
  0
LINE
  8
0
 10
-27.548
 20
63.9877
 11
-27.5
 21
63.5
  0
LINE
  8
0
 10
-27.5
 20
63.5
 11
-27.548
 21
63.0123
  0
LINE
  8
0
 10
-27.548
 20
63.0123
 11
-27.6903
 21
62.5433
  0
LINE
  8
0
 10
-27.6903
 20
62.5433
 11
-27.9213
 21
62.1111
  0
LINE
  8
0
 10
-27.9213
 20
62.1111
 11
-28.2322
 21
61.7322
  0
LINE
  8
0
 10
-28.2322
 20
61.7322
 11
-28.6111
 21
61.4213
  0
LINE
  8
0
 10
-28.6111
 20
61.4213
 11
-29.0433
 21
61.1903
  0
LINE
  8
0
 10
-29.0433
 20
61.1903
 11
-29.5123
 21
61.048
  0
LINE
  8
0
 10
-29.5123
 20
61.048
 11
-30
 21
61
  0
LINE
  8
0
 10
-30
 20
61
 11
-30.4877
 21
61.048
  0
LINE
  8
0
 10
29.5123
 20
61.048
 11
29.0433
 21
61.1903
  0
LINE
  8
0
 10
29.0433
 20
61.1903
 11
28.6111
 21
61.4213
  0
LINE
  8
0
 10
28.6111
 20
61.4213
 11
28.2322
 21
61.7322
  0
LINE
  8
0
 10
28.2322
 20
61.7322
 11
27.9213
 21
62.1111
  0
LINE
  8
0
 10
27.9213
 20
62.1111
 11
27.6903
 21
62.5433
  0
LINE
  8
0
 10
27.6903
 20
62.5433
 11
27.548
 21
63.0123
  0
LINE
  8
0
 10
27.548
 20
63.0123
 11
27.5
 21
63.5
  0
LINE
  8
0
 10
27.5
 20
63.5
 11
27.548
 21
63.9877
  0
LINE
  8
0
 10
27.548
 20
63.9877
 11
27.6903
 21
64.4567
  0
LINE
  8
0
 10
27.6903
 20
64.4567
 11
27.9213
 21
64.8889
  0
LINE
  8
0
 10
27.9213
 20
64.8889
 11
28.2322
 21
65.2678
  0
LINE
  8
0
 10
28.2322
 20
65.2678
 11
28.6111
 21
65.5787
  0
LINE
  8
0
 10
28.6111
 20
65.5787
 11
29.0433
 21
65.8097
  0
LINE
  8
0
 10
29.0433
 20
65.8097
 11
29.5123
 21
65.952
  0
LINE
  8
0
 10
29.5123
 20
65.952
 11
30
 21
66
  0
LINE
  8
0
 10
30
 20
66
 11
30.4877
 21
65.952
  0
LINE
  8
0
 10
30.4877
 20
65.952
 11
30.9567
 21
65.8097
  0
LINE
  8
0
 10
30.9567
 20
65.8097
 11
31.3889
 21
65.5787
  0
LINE
  8
0
 10
31.3889
 20
65.5787
 11
31.7678
 21
65.2678
  0
LINE
  8
0
 10
31.7678
 20
65.2678
 11
32.0787
 21
64.8889
  0
LINE
  8
0
 10
32.0787
 20
64.8889
 11
32.3097
 21
64.4567
  0
LINE
  8
0
 10
32.3097
 20
64.4567
 11
32.452
 21
63.9877
  0
LINE
  8
0
 10
32.452
 20
63.9877
 11
32.5
 21
63.5
  0
LINE
  8
0
 10
32.5
 20
63.5
 11
32.452
 21
63.0123
  0
LINE
  8
0
 10
32.452
 20
63.0123
 11
32.3097
 21
62.5433
  0
LINE
  8
0
 10
32.3097
 20
62.5433
 11
32.0787
 21
62.1111
  0
LINE
  8
0
 10
32.0787
 20
62.1111
 11
31.7678
 21
61.7322
  0
LINE
  8
0
 10
31.7678
 20
61.7322
 11
31.3889
 21
61.4213
  0
LINE
  8
0
 10
31.3889
 20
61.4213
 11
30.9567
 21
61.1903
  0
LINE
  8
0
 10
30.9567
 20
61.1903
 11
30.4877
 21
61.048
  0
LINE
  8
0
 10
30.4877
 20
61.048
 11
30
 21
61
  0
LINE
  8
0
 10
30
 20
61
 11
29.5123
 21
61.048
  0
LINE
  8
0
 10
-6.29263
 20
62.5288
 11
-6.57402
 21
62.6142
  0
LINE
  8
0
 10
-6.57402
 20
62.6142
 11
-6.83334
 21
62.7528
  0
LINE
  8
0
 10
-6.83334
 20
62.7528
 11
-7.06065
 21
62.9393
  0
LINE
  8
0
 10
-7.06065
 20
62.9393
 11
-7.24719
 21
63.1666
  0
LINE
  8
0
 10
-7.24719
 20
63.1666
 11
-7.38582
 21
63.426
  0
LINE
  8
0
 10
-7.38582
 20
63.426
 11
-7.47118
 21
63.7074
  0
LINE
  8
0
 10
-7.47118
 20
63.7074
 11
-7.5
 21
64
  0
LINE
  8
0
 10
-7.5
 20
64
 11
-7.47118
 21
64.2926
  0
LINE
  8
0
 10
-7.47118
 20
64.2926
 11
-7.38582
 21
64.574
  0
LINE
  8
0
 10
-7.38582
 20
64.574
 11
-7.24719
 21
64.8334
  0
LINE
  8
0
 10
-7.24719
 20
64.8334
 11
-7.06065
 21
65.0607
  0
LINE
  8
0
 10
-7.06065
 20
65.0607
 11
-6.83334
 21
65.2472
  0
LINE
  8
0
 10
-6.83334
 20
65.2472
 11
-6.57402
 21
65.3858
  0
LINE
  8
0
 10
-6.57402
 20
65.3858
 11
-6.29263
 21
65.4712
  0
LINE
  8
0
 10
-6.29263
 20
65.4712
 11
-6
 21
65.5
  0
LINE
  8
0
 10
-6
 20
65.5
 11
-5.70735
 21
65.4712
  0
LINE
  8
0
 10
-5.70735
 20
65.4712
 11
-5.42596
 21
65.3858
  0
LINE
  8
0
 10
-5.42596
 20
65.3858
 11
-5.16664
 21
65.2472
  0
LINE
  8
0
 10
-5.16664
 20
65.2472
 11
-4.93933
 21
65.0607
  0
LINE
  8
0
 10
-4.93933
 20
65.0607
 11
-4.75279
 21
64.8334
  0
LINE
  8
0
 10
-4.75279
 20
64.8334
 11
-4.61417
 21
64.574
  0
LINE
  8
0
 10
-4.61417
 20
64.574
 11
-4.52881
 21
64.2926
  0
LINE
  8
0
 10
-4.52881
 20
64.2926
 11
-4.5
 21
64
  0
LINE
  8
0
 10
-4.5
 20
64
 11
-4.52881
 21
63.7074
  0
LINE
  8
0
 10
-4.52881
 20
63.7074
 11
-4.61417
 21
63.426
  0
LINE
  8
0
 10
-4.61417
 20
63.426
 11
-4.75279
 21
63.1666
  0
LINE
  8
0
 10
-4.75279
 20
63.1666
 11
-4.93933
 21
62.9393
  0
LINE
  8
0
 10
-4.93933
 20
62.9393
 11
-5.16664
 21
62.7528
  0
LINE
  8
0
 10
-5.16664
 20
62.7528
 11
-5.42596
 21
62.6142
  0
LINE
  8
0
 10
-5.42596
 20
62.6142
 11
-5.70735
 21
62.5288
  0
LINE
  8
0
 10
-5.70735
 20
62.5288
 11
-6
 21
62.5
  0
LINE
  8
0
 10
-6
 20
62.5
 11
-6.29263
 21
62.5288
  0
LINE
  8
0
 10
5.70735
 20
62.5288
 11
5.42596
 21
62.6142
  0
LINE
  8
0
 10
5.42596
 20
62.6142
 11
5.16664
 21
62.7528
  0
LINE
  8
0
 10
5.16664
 20
62.7528
 11
4.93933
 21
62.9393
  0
LINE
  8
0
 10
4.93933
 20
62.9393
 11
4.75279
 21
63.1666
  0
LINE
  8
0
 10
4.75279
 20
63.1666
 11
4.61417
 21
63.426
  0
LINE
  8
0
 10
4.61417
 20
63.426
 11
4.52881
 21
63.7074
  0
LINE
  8
0
 10
4.52881
 20
63.7074
 11
4.5
 21
64
  0
LINE
  8
0
 10
4.5
 20
64
 11
4.52881
 21
64.2926
  0
LINE
  8
0
 10
4.52881
 20
64.2926
 11
4.61417
 21
64.574
  0
LINE
  8
0
 10
4.61417
 20
64.574
 11
4.75279
 21
64.8334
  0
LINE
  8
0
 10
4.75279
 20
64.8334
 11
4.93933
 21
65.0607
  0
LINE
  8
0
 10
4.93933
 20
65.0607
 11
5.16664
 21
65.2472
  0
LINE
  8
0
 10
5.16664
 20
65.2472
 11
5.42596
 21
65.3858
  0
LINE
  8
0
 10
5.42596
 20
65.3858
 11
5.70735
 21
65.4712
  0
LINE
  8
0
 10
5.70735
 20
65.4712
 11
6
 21
65.5
  0
LINE
  8
0
 10
6
 20
65.5
 11
6.29263
 21
65.4712
  0
LINE
  8
0
 10
6.29263
 20
65.4712
 11
6.57402
 21
65.3858
  0
LINE
  8
0
 10
6.57402
 20
65.3858
 11
6.83334
 21
65.2472
  0
LINE
  8
0
 10
6.83334
 20
65.2472
 11
7.06065
 21
65.0607
  0
LINE
  8
0
 10
7.06065
 20
65.0607
 11
7.24719
 21
64.8334
  0
LINE
  8
0
 10
7.24719
 20
64.8334
 11
7.38582
 21
64.574
  0
LINE
  8
0
 10
7.38582
 20
64.574
 11
7.47118
 21
64.2926
  0
LINE
  8
0
 10
7.47118
 20
64.2926
 11
7.5
 21
64
  0
LINE
  8
0
 10
7.5
 20
64
 11
7.47118
 21
63.7074
  0
LINE
  8
0
 10
7.47118
 20
63.7074
 11
7.38582
 21
63.426
  0
LINE
  8
0
 10
7.38582
 20
63.426
 11
7.24719
 21
63.1666
  0
LINE
  8
0
 10
7.24719
 20
63.1666
 11
7.06065
 21
62.9393
  0
LINE
  8
0
 10
7.06065
 20
62.9393
 11
6.83334
 21
62.7528
  0
LINE
  8
0
 10
6.83334
 20
62.7528
 11
6.57402
 21
62.6142
  0
LINE
  8
0
 10
6.57402
 20
62.6142
 11
6.29263
 21
62.5288
  0
LINE
  8
0
 10
6.29263
 20
62.5288
 11
6
 21
62.5
  0
LINE
  8
0
 10
6
 20
62.5
 11
5.70735
 21
62.5288
  0
LINE
  8
0
 10
46.6098
 20
49.0384
 11
46.2346
 21
49.1522
  0
LINE
  8
0
 10
46.2346
 20
49.1522
 11
45.8889
 21
49.3371
  0
LINE
  8
0
 10
45.8889
 20
49.3371
 11
45.5858
 21
49.5858
  0
LINE
  8
0
 10
45.5858
 20
49.5858
 11
45.3371
 21
49.8889
  0
LINE
  8
0
 10
45.3371
 20
49.8889
 11
45.1522
 21
50.2346
  0
LINE
  8
0
 10
45.1522
 20
50.2346
 11
45.0384
 21
50.6098
  0
LINE
  8
0
 10
45.0384
 20
50.6098
 11
45
 21
51
  0
LINE
  8
0
 10
45
 20
51
 11
45.0384
 21
51.3902
  0
LINE
  8
0
 10
45.0384
 20
51.3902
 11
45.1522
 21
51.7654
  0
LINE
  8
0
 10
45.1522
 20
51.7654
 11
45.3371
 21
52.1111
  0
LINE
  8
0
 10
45.3371
 20
52.1111
 11
45.5858
 21
52.4142
  0
LINE
  8
0
 10
45.5858
 20
52.4142
 11
45.8889
 21
52.6629
  0
LINE
  8
0
 10
45.8889
 20
52.6629
 11
46.2346
 21
52.8477
  0
LINE
  8
0
 10
46.2346
 20
52.8477
 11
46.6098
 21
52.9616
  0
LINE
  8
0
 10
46.6098
 20
52.9616
 11
47
 21
53
  0
LINE
  8
0
 10
47
 20
53
 11
47.3902
 21
52.9616
  0
LINE
  8
0
 10
47.3902
 20
52.9616
 11
47.7654
 21
52.8477
  0
LINE
  8
0
 10
47.7654
 20
52.8477
 11
48.1111
 21
52.6629
  0
LINE
  8
0
 10
48.1111
 20
52.6629
 11
48.4142
 21
52.4142
  0
LINE
  8
0
 10
48.4142
 20
52.4142
 11
48.6629
 21
52.1111
  0
LINE
  8
0
 10
48.6629
 20
52.1111
 11
48.8477
 21
51.7654
  0
LINE
  8
0
 10
48.8477
 20
51.7654
 11
48.9616
 21
51.3902
  0
LINE
  8
0
 10
48.9616
 20
51.3902
 11
49
 21
51
  0
LINE
  8
0
 10
49
 20
51
 11
48.9616
 21
50.6098
  0
LINE
  8
0
 10
48.9616
 20
50.6098
 11
48.8477
 21
50.2346
  0
LINE
  8
0
 10
48.8477
 20
50.2346
 11
48.6629
 21
49.8889
  0
LINE
  8
0
 10
48.6629
 20
49.8889
 11
48.4142
 21
49.5858
  0
LINE
  8
0
 10
48.4142
 20
49.5858
 11
48.1111
 21
49.3371
  0
LINE
  8
0
 10
48.1111
 20
49.3371
 11
47.7654
 21
49.1522
  0
LINE
  8
0
 10
47.7654
 20
49.1522
 11
47.3902
 21
49.0384
  0
LINE
  8
0
 10
47.3902
 20
49.0384
 11
47
 21
49
  0
LINE
  8
0
 10
47
 20
49
 11
46.6098
 21
49.0384
  0
LINE
  8
0
 10
-30.4877
 20
45.048
 11
-30.9567
 21
45.1903
  0
LINE
  8
0
 10
-30.9567
 20
45.1903
 11
-31.3889
 21
45.4213
  0
LINE
  8
0
 10
-31.3889
 20
45.4213
 11
-31.7678
 21
45.7322
  0
LINE
  8
0
 10
-31.7678
 20
45.7322
 11
-32.0787
 21
46.1111
  0
LINE
  8
0
 10
-32.0787
 20
46.1111
 11
-32.3097
 21
46.5433
  0
LINE
  8
0
 10
-32.3097
 20
46.5433
 11
-32.452
 21
47.0123
  0
LINE
  8
0
 10
-32.452
 20
47.0123
 11
-32.5
 21
47.5
  0
LINE
  8
0
 10
-32.5
 20
47.5
 11
-32.452
 21
47.9877
  0
LINE
  8
0
 10
-32.452
 20
47.9877
 11
-32.3097
 21
48.4567
  0
LINE
  8
0
 10
-32.3097
 20
48.4567
 11
-32.0787
 21
48.8889
  0
LINE
  8
0
 10
-32.0787
 20
48.8889
 11
-31.7678
 21
49.2678
  0
LINE
  8
0
 10
-31.7678
 20
49.2678
 11
-31.3889
 21
49.5787
  0
LINE
  8
0
 10
-31.3889
 20
49.5787
 11
-30.9567
 21
49.8097
  0
LINE
  8
0
 10
-30.9567
 20
49.8097
 11
-30.4877
 21
49.952
  0
LINE
  8
0
 10
-30.4877
 20
49.952
 11
-30
 21
50
  0
LINE
  8
0
 10
-30
 20
50
 11
-29.5123
 21
49.952
  0
LINE
  8
0
 10
-29.5123
 20
49.952
 11
-29.0433
 21
49.8097
  0
LINE
  8
0
 10
-29.0433
 20
49.8097
 11
-28.6111
 21
49.5787
  0
LINE
  8
0
 10
-28.6111
 20
49.5787
 11
-28.2322
 21
49.2678
  0
LINE
  8
0
 10
-28.2322
 20
49.2678
 11
-27.9213
 21
48.8889
  0
LINE
  8
0
 10
-27.9213
 20
48.8889
 11
-27.6903
 21
48.4567
  0
LINE
  8
0
 10
-27.6903
 20
48.4567
 11
-27.548
 21
47.9877
  0
LINE
  8
0
 10
-27.548
 20
47.9877
 11
-27.5
 21
47.5
  0
LINE
  8
0
 10
-27.5
 20
47.5
 11
-27.548
 21
47.0123
  0
LINE
  8
0
 10
-27.548
 20
47.0123
 11
-27.6903
 21
46.5433
  0
LINE
  8
0
 10
-27.6903
 20
46.5433
 11
-27.9213
 21
46.1111
  0
LINE
  8
0
 10
-27.9213
 20
46.1111
 11
-28.2322
 21
45.7322
  0
LINE
  8
0
 10
-28.2322
 20
45.7322
 11
-28.6111
 21
45.4213
  0
LINE
  8
0
 10
-28.6111
 20
45.4213
 11
-29.0433
 21
45.1903
  0
LINE
  8
0
 10
-29.0433
 20
45.1903
 11
-29.5123
 21
45.048
  0
LINE
  8
0
 10
-29.5123
 20
45.048
 11
-30
 21
45
  0
LINE
  8
0
 10
-30
 20
45
 11
-30.4877
 21
45.048
  0
LINE
  8
0
 10
29.5123
 20
45.048
 11
29.0433
 21
45.1903
  0
LINE
  8
0
 10
29.0433
 20
45.1903
 11
28.6111
 21
45.4213
  0
LINE
  8
0
 10
28.6111
 20
45.4213
 11
28.2322
 21
45.7322
  0
LINE
  8
0
 10
28.2322
 20
45.7322
 11
27.9213
 21
46.1111
  0
LINE
  8
0
 10
27.9213
 20
46.1111
 11
27.6903
 21
46.5433
  0
LINE
  8
0
 10
27.6903
 20
46.5433
 11
27.548
 21
47.0123
  0
LINE
  8
0
 10
27.548
 20
47.0123
 11
27.5
 21
47.5
  0
LINE
  8
0
 10
27.5
 20
47.5
 11
27.548
 21
47.9877
  0
LINE
  8
0
 10
27.548
 20
47.9877
 11
27.6903
 21
48.4567
  0
LINE
  8
0
 10
27.6903
 20
48.4567
 11
27.9213
 21
48.8889
  0
LINE
  8
0
 10
27.9213
 20
48.8889
 11
28.2322
 21
49.2678
  0
LINE
  8
0
 10
28.2322
 20
49.2678
 11
28.6111
 21
49.5787
  0
LINE
  8
0
 10
28.6111
 20
49.5787
 11
29.0433
 21
49.8097
  0
LINE
  8
0
 10
29.0433
 20
49.8097
 11
29.5123
 21
49.952
  0
LINE
  8
0
 10
29.5123
 20
49.952
 11
30
 21
50
  0
LINE
  8
0
 10
30
 20
50
 11
30.4877
 21
49.952
  0
LINE
  8
0
 10
30.4877
 20
49.952
 11
30.9567
 21
49.8097
  0
LINE
  8
0
 10
30.9567
 20
49.8097
 11
31.3889
 21
49.5787
  0
LINE
  8
0
 10
31.3889
 20
49.5787
 11
31.7678
 21
49.2678
  0
LINE
  8
0
 10
31.7678
 20
49.2678
 11
32.0787
 21
48.8889
  0
LINE
  8
0
 10
32.0787
 20
48.8889
 11
32.3097
 21
48.4567
  0
LINE
  8
0
 10
32.3097
 20
48.4567
 11
32.452
 21
47.9877
  0
LINE
  8
0
 10
32.452
 20
47.9877
 11
32.5
 21
47.5
  0
LINE
  8
0
 10
32.5
 20
47.5
 11
32.452
 21
47.0123
  0
LINE
  8
0
 10
32.452
 20
47.0123
 11
32.3097
 21
46.5433
  0
LINE
  8
0
 10
32.3097
 20
46.5433
 11
32.0787
 21
46.1111
  0
LINE
  8
0
 10
32.0787
 20
46.1111
 11
31.7678
 21
45.7322
  0
LINE
  8
0
 10
31.7678
 20
45.7322
 11
31.3889
 21
45.4213
  0
LINE
  8
0
 10
31.3889
 20
45.4213
 11
30.9567
 21
45.1903
  0
LINE
  8
0
 10
30.9567
 20
45.1903
 11
30.4877
 21
45.048
  0
LINE
  8
0
 10
30.4877
 20
45.048
 11
30
 21
45
  0
LINE
  8
0
 10
30
 20
45
 11
29.5123
 21
45.048
  0
LINE
  8
0
 10
-90
 20
-41
 11
-91.5607
 21
-40.8463
  0
LINE
  8
0
 10
-91.5607
 20
-40.8463
 11
-93.0615
 21
-40.391
  0
LINE
  8
0
 10
-93.0615
 20
-40.391
 11
-94.4446
 21
-39.6517
  0
LINE
  8
0
 10
-94.4446
 20
-39.6517
 11
-95.6568
 21
-38.6568
  0
LINE
  8
0
 10
-95.6568
 20
-38.6568
 11
-96.6517
 21
-37.4445
  0
LINE
  8
0
 10
-96.6517
 20
-37.4445
 11
-97.391
 21
-36.0615
  0
LINE
  8
0
 10
-97.391
 20
-36.0615
 11
-97.8463
 21
-34.5607
  0
LINE
  8
0
 10
-97.8463
 20
-34.5607
 11
-98
 21
-33
  0
LINE
  8
0
 10
-98
 20
-33
 11
-98
 21
33
  0
LINE
  8
0
 10
-98
 20
33
 11
-97.8463
 21
34.5607
  0
LINE
  8
0
 10
-97.8463
 20
34.5607
 11
-97.391
 21
36.0615
  0
LINE
  8
0
 10
-97.391
 20
36.0615
 11
-96.6517
 21
37.4445
  0
LINE
  8
0
 10
-96.6517
 20
37.4445
 11
-95.6568
 21
38.6568
  0
LINE
  8
0
 10
-95.6568
 20
38.6568
 11
-94.4446
 21
39.6517
  0
LINE
  8
0
 10
-94.4446
 20
39.6517
 11
-93.0615
 21
40.391
  0
LINE
  8
0
 10
-93.0615
 20
40.391
 11
-91.5607
 21
40.8463
  0
LINE
  8
0
 10
-91.5607
 20
40.8463
 11
-90
 21
41
  0
LINE
  8
0
 10
-90
 20
41
 11
90
 21
41
  0
LINE
  8
0
 10
90
 20
41
 11
91.5607
 21
40.8463
  0
LINE
  8
0
 10
91.5607
 20
40.8463
 11
93.0615
 21
40.391
  0
LINE
  8
0
 10
93.0615
 20
40.391
 11
94.4446
 21
39.6517
  0
LINE
  8
0
 10
94.4446
 20
39.6517
 11
95.6568
 21
38.6568
  0
LINE
  8
0
 10
95.6568
 20
38.6568
 11
96.6517
 21
37.4445
  0
LINE
  8
0
 10
96.6517
 20
37.4445
 11
97.391
 21
36.0615
  0
LINE
  8
0
 10
97.391
 20
36.0615
 11
97.8463
 21
34.5607
  0
LINE
  8
0
 10
97.8463
 20
34.5607
 11
98
 21
33
  0
LINE
  8
0
 10
98
 20
33
 11
98
 21
-33
  0
LINE
  8
0
 10
98
 20
-33
 11
97.8463
 21
-34.5607
  0
LINE
  8
0
 10
97.8463
 20
-34.5607
 11
97.391
 21
-36.0615
  0
LINE
  8
0
 10
97.391
 20
-36.0615
 11
96.6517
 21
-37.4445
  0
LINE
  8
0
 10
96.6517
 20
-37.4445
 11
95.6568
 21
-38.6568
  0
LINE
  8
0
 10
95.6568
 20
-38.6568
 11
94.4446
 21
-39.6517
  0
LINE
  8
0
 10
94.4446
 20
-39.6517
 11
93.0615
 21
-40.391
  0
LINE
  8
0
 10
93.0615
 20
-40.391
 11
91.5607
 21
-40.8463
  0
LINE
  8
0
 10
91.5607
 20
-40.8463
 11
90
 21
-41
  0
LINE
  8
0
 10
90
 20
-41
 11
-90
 21
-41
  0
LINE
  8
0
 10
29.5123
 20
-49.952
 11
29.0433
 21
-49.8097
  0
LINE
  8
0
 10
29.0433
 20
-49.8097
 11
28.6111
 21
-49.5787
  0
LINE
  8
0
 10
28.6111
 20
-49.5787
 11
28.2322
 21
-49.2678
  0
LINE
  8
0
 10
28.2322
 20
-49.2678
 11
27.9213
 21
-48.8889
  0
LINE
  8
0
 10
27.9213
 20
-48.8889
 11
27.6903
 21
-48.4567
  0
LINE
  8
0
 10
27.6903
 20
-48.4567
 11
27.548
 21
-47.9877
  0
LINE
  8
0
 10
27.548
 20
-47.9877
 11
27.5
 21
-47.5
  0
LINE
  8
0
 10
27.5
 20
-47.5
 11
27.548
 21
-47.0123
  0
LINE
  8
0
 10
27.548
 20
-47.0123
 11
27.6903
 21
-46.5433
  0
LINE
  8
0
 10
27.6903
 20
-46.5433
 11
27.9213
 21
-46.1111
  0
LINE
  8
0
 10
27.9213
 20
-46.1111
 11
28.2322
 21
-45.7322
  0
LINE
  8
0
 10
28.2322
 20
-45.7322
 11
28.6111
 21
-45.4213
  0
LINE
  8
0
 10
28.6111
 20
-45.4213
 11
29.0433
 21
-45.1903
  0
LINE
  8
0
 10
29.0433
 20
-45.1903
 11
29.5123
 21
-45.048
  0
LINE
  8
0
 10
29.5123
 20
-45.048
 11
30
 21
-45
  0
LINE
  8
0
 10
30
 20
-45
 11
30.4877
 21
-45.048
  0
LINE
  8
0
 10
30.4877
 20
-45.048
 11
30.9567
 21
-45.1903
  0
LINE
  8
0
 10
30.9567
 20
-45.1903
 11
31.3889
 21
-45.4213
  0
LINE
  8
0
 10
31.3889
 20
-45.4213
 11
31.7678
 21
-45.7322
  0
LINE
  8
0
 10
31.7678
 20
-45.7322
 11
32.0787
 21
-46.1111
  0
LINE
  8
0
 10
32.0787
 20
-46.1111
 11
32.3097
 21
-46.5433
  0
LINE
  8
0
 10
32.3097
 20
-46.5433
 11
32.452
 21
-47.0123
  0
LINE
  8
0
 10
32.452
 20
-47.0123
 11
32.5
 21
-47.5
  0
LINE
  8
0
 10
32.5
 20
-47.5
 11
32.452
 21
-47.9877
  0
LINE
  8
0
 10
32.452
 20
-47.9877
 11
32.3097
 21
-48.4567
  0
LINE
  8
0
 10
32.3097
 20
-48.4567
 11
32.0787
 21
-48.8889
  0
LINE
  8
0
 10
32.0787
 20
-48.8889
 11
31.7678
 21
-49.2678
  0
LINE
  8
0
 10
31.7678
 20
-49.2678
 11
31.3889
 21
-49.5787
  0
LINE
  8
0
 10
31.3889
 20
-49.5787
 11
30.9567
 21
-49.8097
  0
LINE
  8
0
 10
30.9567
 20
-49.8097
 11
30.4877
 21
-49.952
  0
LINE
  8
0
 10
30.4877
 20
-49.952
 11
30
 21
-50
  0
LINE
  8
0
 10
30
 20
-50
 11
29.5123
 21
-49.952
  0
LINE
  8
0
 10
-30.4877
 20
-49.952
 11
-30.9567
 21
-49.8097
  0
LINE
  8
0
 10
-30.9567
 20
-49.8097
 11
-31.3889
 21
-49.5787
  0
LINE
  8
0
 10
-31.3889
 20
-49.5787
 11
-31.7678
 21
-49.2678
  0
LINE
  8
0
 10
-31.7678
 20
-49.2678
 11
-32.0787
 21
-48.8889
  0
LINE
  8
0
 10
-32.0787
 20
-48.8889
 11
-32.3097
 21
-48.4567
  0
LINE
  8
0
 10
-32.3097
 20
-48.4567
 11
-32.452
 21
-47.9877
  0
LINE
  8
0
 10
-32.452
 20
-47.9877
 11
-32.5
 21
-47.5
  0
LINE
  8
0
 10
-32.5
 20
-47.5
 11
-32.452
 21
-47.0123
  0
LINE
  8
0
 10
-32.452
 20
-47.0123
 11
-32.3097
 21
-46.5433
  0
LINE
  8
0
 10
-32.3097
 20
-46.5433
 11
-32.0787
 21
-46.1111
  0
LINE
  8
0
 10
-32.0787
 20
-46.1111
 11
-31.7678
 21
-45.7322
  0
LINE
  8
0
 10
-31.7678
 20
-45.7322
 11
-31.3889
 21
-45.4213
  0
LINE
  8
0
 10
-31.3889
 20
-45.4213
 11
-30.9567
 21
-45.1903
  0
LINE
  8
0
 10
-30.9567
 20
-45.1903
 11
-30.4877
 21
-45.048
  0
LINE
  8
0
 10
-30.4877
 20
-45.048
 11
-30
 21
-45
  0
LINE
  8
0
 10
-30
 20
-45
 11
-29.5123
 21
-45.048
  0
LINE
  8
0
 10
-29.5123
 20
-45.048
 11
-29.0433
 21
-45.1903
  0
LINE
  8
0
 10
-29.0433
 20
-45.1903
 11
-28.6111
 21
-45.4213
  0
LINE
  8
0
 10
-28.6111
 20
-45.4213
 11
-28.2322
 21
-45.7322
  0
LINE
  8
0
 10
-28.2322
 20
-45.7322
 11
-27.9213
 21
-46.1111
  0
LINE
  8
0
 10
-27.9213
 20
-46.1111
 11
-27.6903
 21
-46.5433
  0
LINE
  8
0
 10
-27.6903
 20
-46.5433
 11
-27.548
 21
-47.0123
  0
LINE
  8
0
 10
-27.548
 20
-47.0123
 11
-27.5
 21
-47.5
  0
LINE
  8
0
 10
-27.5
 20
-47.5
 11
-27.548
 21
-47.9877
  0
LINE
  8
0
 10
-27.548
 20
-47.9877
 11
-27.6903
 21
-48.4567
  0
LINE
  8
0
 10
-27.6903
 20
-48.4567
 11
-27.9213
 21
-48.8889
  0
LINE
  8
0
 10
-27.9213
 20
-48.8889
 11
-28.2322
 21
-49.2678
  0
LINE
  8
0
 10
-28.2322
 20
-49.2678
 11
-28.6111
 21
-49.5787
  0
LINE
  8
0
 10
-28.6111
 20
-49.5787
 11
-29.0433
 21
-49.8097
  0
LINE
  8
0
 10
-29.0433
 20
-49.8097
 11
-29.5123
 21
-49.952
  0
LINE
  8
0
 10
-29.5123
 20
-49.952
 11
-30
 21
-50
  0
LINE
  8
0
 10
-30
 20
-50
 11
-30.4877
 21
-49.952
  0
LINE
  8
0
 10
-30.4877
 20
-65.952
 11
-30.9567
 21
-65.8097
  0
LINE
  8
0
 10
-30.9567
 20
-65.8097
 11
-31.3889
 21
-65.5787
  0
LINE
  8
0
 10
-31.3889
 20
-65.5787
 11
-31.7678
 21
-65.2678
  0
LINE
  8
0
 10
-31.7678
 20
-65.2678
 11
-32.0787
 21
-64.8889
  0
LINE
  8
0
 10
-32.0787
 20
-64.8889
 11
-32.3097
 21
-64.4567
  0
LINE
  8
0
 10
-32.3097
 20
-64.4567
 11
-32.452
 21
-63.9877
  0
LINE
  8
0
 10
-32.452
 20
-63.9877
 11
-32.5
 21
-63.5
  0
LINE
  8
0
 10
-32.5
 20
-63.5
 11
-32.452
 21
-63.0123
  0
LINE
  8
0
 10
-32.452
 20
-63.0123
 11
-32.3097
 21
-62.5433
  0
LINE
  8
0
 10
-32.3097
 20
-62.5433
 11
-32.0787
 21
-62.1111
  0
LINE
  8
0
 10
-32.0787
 20
-62.1111
 11
-31.7678
 21
-61.7322
  0
LINE
  8
0
 10
-31.7678
 20
-61.7322
 11
-31.3889
 21
-61.4213
  0
LINE
  8
0
 10
-31.3889
 20
-61.4213
 11
-30.9567
 21
-61.1903
  0
LINE
  8
0
 10
-30.9567
 20
-61.1903
 11
-30.4877
 21
-61.048
  0
LINE
  8
0
 10
-30.4877
 20
-61.048
 11
-30
 21
-61
  0
LINE
  8
0
 10
-30
 20
-61
 11
-29.5123
 21
-61.048
  0
LINE
  8
0
 10
-29.5123
 20
-61.048
 11
-29.0433
 21
-61.1903
  0
LINE
  8
0
 10
-29.0433
 20
-61.1903
 11
-28.6111
 21
-61.4213
  0
LINE
  8
0
 10
-28.6111
 20
-61.4213
 11
-28.2322
 21
-61.7322
  0
LINE
  8
0
 10
-28.2322
 20
-61.7322
 11
-27.9213
 21
-62.1111
  0
LINE
  8
0
 10
-27.9213
 20
-62.1111
 11
-27.6903
 21
-62.5433
  0
LINE
  8
0
 10
-27.6903
 20
-62.5433
 11
-27.548
 21
-63.0123
  0
LINE
  8
0
 10
-27.548
 20
-63.0123
 11
-27.5
 21
-63.5
  0
LINE
  8
0
 10
-27.5
 20
-63.5
 11
-27.548
 21
-63.9877
  0
LINE
  8
0
 10
-27.548
 20
-63.9877
 11
-27.6903
 21
-64.4567
  0
LINE
  8
0
 10
-27.6903
 20
-64.4567
 11
-27.9213
 21
-64.8889
  0
LINE
  8
0
 10
-27.9213
 20
-64.8889
 11
-28.2322
 21
-65.2678
  0
LINE
  8
0
 10
-28.2322
 20
-65.2678
 11
-28.6111
 21
-65.5787
  0
LINE
  8
0
 10
-28.6111
 20
-65.5787
 11
-29.0433
 21
-65.8097
  0
LINE
  8
0
 10
-29.0433
 20
-65.8097
 11
-29.5123
 21
-65.952
  0
LINE
  8
0
 10
-29.5123
 20
-65.952
 11
-30
 21
-66
  0
LINE
  8
0
 10
-30
 20
-66
 11
-30.4877
 21
-65.952
  0
LINE
  8
0
 10
29.5123
 20
-65.952
 11
29.0433
 21
-65.8097
  0
LINE
  8
0
 10
29.0433
 20
-65.8097
 11
28.6111
 21
-65.5787
  0
LINE
  8
0
 10
28.6111
 20
-65.5787
 11
28.2322
 21
-65.2678
  0
LINE
  8
0
 10
28.2322
 20
-65.2678
 11
27.9213
 21
-64.8889
  0
LINE
  8
0
 10
27.9213
 20
-64.8889
 11
27.6903
 21
-64.4567
  0
LINE
  8
0
 10
27.6903
 20
-64.4567
 11
27.548
 21
-63.9877
  0
LINE
  8
0
 10
27.548
 20
-63.9877
 11
27.5
 21
-63.5
  0
LINE
  8
0
 10
27.5
 20
-63.5
 11
27.548
 21
-63.0123
  0
LINE
  8
0
 10
27.548
 20
-63.0123
 11
27.6903
 21
-62.5433
  0
LINE
  8
0
 10
27.6903
 20
-62.5433
 11
27.9213
 21
-62.1111
  0
LINE
  8
0
 10
27.9213
 20
-62.1111
 11
28.2322
 21
-61.7322
  0
LINE
  8
0
 10
28.2322
 20
-61.7322
 11
28.6111
 21
-61.4213
  0
LINE
  8
0
 10
28.6111
 20
-61.4213
 11
29.0433
 21
-61.1903
  0
LINE
  8
0
 10
29.0433
 20
-61.1903
 11
29.5123
 21
-61.048
  0
LINE
  8
0
 10
29.5123
 20
-61.048
 11
30
 21
-61
  0
LINE
  8
0
 10
30
 20
-61
 11
30.4877
 21
-61.048
  0
LINE
  8
0
 10
30.4877
 20
-61.048
 11
30.9567
 21
-61.1903
  0
LINE
  8
0
 10
30.9567
 20
-61.1903
 11
31.3889
 21
-61.4213
  0
LINE
  8
0
 10
31.3889
 20
-61.4213
 11
31.7678
 21
-61.7322
  0
LINE
  8
0
 10
31.7678
 20
-61.7322
 11
32.0787
 21
-62.1111
  0
LINE
  8
0
 10
32.0787
 20
-62.1111
 11
32.3097
 21
-62.5433
  0
LINE
  8
0
 10
32.3097
 20
-62.5433
 11
32.452
 21
-63.0123
  0
LINE
  8
0
 10
32.452
 20
-63.0123
 11
32.5
 21
-63.5
  0
LINE
  8
0
 10
32.5
 20
-63.5
 11
32.452
 21
-63.9877
  0
LINE
  8
0
 10
32.452
 20
-63.9877
 11
32.3097
 21
-64.4567
  0
LINE
  8
0
 10
32.3097
 20
-64.4567
 11
32.0787
 21
-64.8889
  0
LINE
  8
0
 10
32.0787
 20
-64.8889
 11
31.7678
 21
-65.2678
  0
LINE
  8
0
 10
31.7678
 20
-65.2678
 11
31.3889
 21
-65.5787
  0
LINE
  8
0
 10
31.3889
 20
-65.5787
 11
30.9567
 21
-65.8097
  0
LINE
  8
0
 10
30.9567
 20
-65.8097
 11
30.4877
 21
-65.952
  0
LINE
  8
0
 10
30.4877
 20
-65.952
 11
30
 21
-66
  0
LINE
  8
0
 10
30
 20
-66
 11
29.5123
 21
-65.952
  0
LINE
  8
0
 10
5.70735
 20
-65.4712
 11
5.42596
 21
-65.3858
  0
LINE
  8
0
 10
5.42596
 20
-65.3858
 11
5.16664
 21
-65.2472
  0
LINE
  8
0
 10
5.16664
 20
-65.2472
 11
4.93933
 21
-65.0607
  0
LINE
  8
0
 10
4.93933
 20
-65.0607
 11
4.75279
 21
-64.8334
  0
LINE
  8
0
 10
4.75279
 20
-64.8334
 11
4.61417
 21
-64.574
  0
LINE
  8
0
 10
4.61417
 20
-64.574
 11
4.52881
 21
-64.2926
  0
LINE
  8
0
 10
4.52881
 20
-64.2926
 11
4.5
 21
-64
  0
LINE
  8
0
 10
4.5
 20
-64
 11
4.52881
 21
-63.7074
  0
LINE
  8
0
 10
4.52881
 20
-63.7074
 11
4.61417
 21
-63.426
  0
LINE
  8
0
 10
4.61417
 20
-63.426
 11
4.75279
 21
-63.1666
  0
LINE
  8
0
 10
4.75279
 20
-63.1666
 11
4.93933
 21
-62.9393
  0
LINE
  8
0
 10
4.93933
 20
-62.9393
 11
5.16664
 21
-62.7528
  0
LINE
  8
0
 10
5.16664
 20
-62.7528
 11
5.42596
 21
-62.6142
  0
LINE
  8
0
 10
5.42596
 20
-62.6142
 11
5.70735
 21
-62.5288
  0
LINE
  8
0
 10
5.70735
 20
-62.5288
 11
6
 21
-62.5
  0
LINE
  8
0
 10
6
 20
-62.5
 11
6.29263
 21
-62.5288
  0
LINE
  8
0
 10
6.29263
 20
-62.5288
 11
6.57402
 21
-62.6142
  0
LINE
  8
0
 10
6.57402
 20
-62.6142
 11
6.83334
 21
-62.7528
  0
LINE
  8
0
 10
6.83334
 20
-62.7528
 11
7.06065
 21
-62.9393
  0
LINE
  8
0
 10
7.06065
 20
-62.9393
 11
7.24719
 21
-63.1666
  0
LINE
  8
0
 10
7.24719
 20
-63.1666
 11
7.38582
 21
-63.426
  0
LINE
  8
0
 10
7.38582
 20
-63.426
 11
7.47118
 21
-63.7074
  0
LINE
  8
0
 10
7.47118
 20
-63.7074
 11
7.5
 21
-64
  0
LINE
  8
0
 10
7.5
 20
-64
 11
7.47118
 21
-64.2926
  0
LINE
  8
0
 10
7.47118
 20
-64.2926
 11
7.38582
 21
-64.574
  0
LINE
  8
0
 10
7.38582
 20
-64.574
 11
7.24719
 21
-64.8334
  0
LINE
  8
0
 10
7.24719
 20
-64.8334
 11
7.06065
 21
-65.0607
  0
LINE
  8
0
 10
7.06065
 20
-65.0607
 11
6.83334
 21
-65.2472
  0
LINE
  8
0
 10
6.83334
 20
-65.2472
 11
6.57402
 21
-65.3858
  0
LINE
  8
0
 10
6.57402
 20
-65.3858
 11
6.29263
 21
-65.4712
  0
LINE
  8
0
 10
6.29263
 20
-65.4712
 11
6
 21
-65.5
  0
LINE
  8
0
 10
6
 20
-65.5
 11
5.70735
 21
-65.4712
  0
LINE
  8
0
 10
-6.29263
 20
-65.4712
 11
-6.57402
 21
-65.3858
  0
LINE
  8
0
 10
-6.57402
 20
-65.3858
 11
-6.83334
 21
-65.2472
  0
LINE
  8
0
 10
-6.83334
 20
-65.2472
 11
-7.06065
 21
-65.0607
  0
LINE
  8
0
 10
-7.06065
 20
-65.0607
 11
-7.24719
 21
-64.8334
  0
LINE
  8
0
 10
-7.24719
 20
-64.8334
 11
-7.38582
 21
-64.574
  0
LINE
  8
0
 10
-7.38582
 20
-64.574
 11
-7.47118
 21
-64.2926
  0
LINE
  8
0
 10
-7.47118
 20
-64.2926
 11
-7.5
 21
-64
  0
LINE
  8
0
 10
-7.5
 20
-64
 11
-7.47118
 21
-63.7074
  0
LINE
  8
0
 10
-7.47118
 20
-63.7074
 11
-7.38582
 21
-63.426
  0
LINE
  8
0
 10
-7.38582
 20
-63.426
 11
-7.24719
 21
-63.1666
  0
LINE
  8
0
 10
-7.24719
 20
-63.1666
 11
-7.06065
 21
-62.9393
  0
LINE
  8
0
 10
-7.06065
 20
-62.9393
 11
-6.83334
 21
-62.7528
  0
LINE
  8
0
 10
-6.83334
 20
-62.7528
 11
-6.57402
 21
-62.6142
  0
LINE
  8
0
 10
-6.57402
 20
-62.6142
 11
-6.29263
 21
-62.5288
  0
LINE
  8
0
 10
-6.29263
 20
-62.5288
 11
-6
 21
-62.5
  0
LINE
  8
0
 10
-6
 20
-62.5
 11
-5.70735
 21
-62.5288
  0
LINE
  8
0
 10
-5.70735
 20
-62.5288
 11
-5.42596
 21
-62.6142
  0
LINE
  8
0
 10
-5.42596
 20
-62.6142
 11
-5.16664
 21
-62.7528
  0
LINE
  8
0
 10
-5.16664
 20
-62.7528
 11
-4.93933
 21
-62.9393
  0
LINE
  8
0
 10
-4.93933
 20
-62.9393
 11
-4.75279
 21
-63.1666
  0
LINE
  8
0
 10
-4.75279
 20
-63.1666
 11
-4.61417
 21
-63.426
  0
LINE
  8
0
 10
-4.61417
 20
-63.426
 11
-4.52881
 21
-63.7074
  0
LINE
  8
0
 10
-4.52881
 20
-63.7074
 11
-4.5
 21
-64
  0
LINE
  8
0
 10
-4.5
 20
-64
 11
-4.52881
 21
-64.2926
  0
LINE
  8
0
 10
-4.52881
 20
-64.2926
 11
-4.61417
 21
-64.574
  0
LINE
  8
0
 10
-4.61417
 20
-64.574
 11
-4.75279
 21
-64.8334
  0
LINE
  8
0
 10
-4.75279
 20
-64.8334
 11
-4.93933
 21
-65.0607
  0
LINE
  8
0
 10
-4.93933
 20
-65.0607
 11
-5.16664
 21
-65.2472
  0
LINE
  8
0
 10
-5.16664
 20
-65.2472
 11
-5.42596
 21
-65.3858
  0
LINE
  8
0
 10
-5.42596
 20
-65.3858
 11
-5.70735
 21
-65.4712
  0
LINE
  8
0
 10
-5.70735
 20
-65.4712
 11
-6
 21
-65.5
  0
LINE
  8
0
 10
-6
 20
-65.5
 11
-6.29263
 21
-65.4712
  0
LINE
  8
0
 10
-104.493
 20
-105.871
 11
-104.774
 21
-105.786
  0
LINE
  8
0
 10
-104.774
 20
-105.786
 11
-105.033
 21
-105.647
  0
LINE
  8
0
 10
-105.033
 20
-105.647
 11
-105.261
 21
-105.461
  0
LINE
  8
0
 10
-105.261
 20
-105.461
 11
-105.447
 21
-105.233
  0
LINE
  8
0
 10
-105.447
 20
-105.233
 11
-105.586
 21
-104.974
  0
LINE
  8
0
 10
-105.586
 20
-104.974
 11
-105.671
 21
-104.693
  0
LINE
  8
0
 10
-105.671
 20
-104.693
 11
-105.7
 21
-104.4
  0
LINE
  8
0
 10
-105.7
 20
-104.4
 11
-105.671
 21
-104.107
  0
LINE
  8
0
 10
-105.671
 20
-104.107
 11
-105.586
 21
-103.826
  0
LINE
  8
0
 10
-105.586
 20
-103.826
 11
-105.447
 21
-103.567
  0
LINE
  8
0
 10
-105.447
 20
-103.567
 11
-105.261
 21
-103.339
  0
LINE
  8
0
 10
-105.261
 20
-103.339
 11
-105.033
 21
-103.153
  0
LINE
  8
0
 10
-105.033
 20
-103.153
 11
-104.774
 21
-103.014
  0
LINE
  8
0
 10
-104.774
 20
-103.014
 11
-104.493
 21
-102.929
  0
LINE
  8
0
 10
-104.493
 20
-102.929
 11
-104.2
 21
-102.9
  0
LINE
  8
0
 10
-104.2
 20
-102.9
 11
-103.907
 21
-102.929
  0
LINE
  8
0
 10
-103.907
 20
-102.929
 11
-103.626
 21
-103.014
  0
LINE
  8
0
 10
-103.626
 20
-103.014
 11
-103.367
 21
-103.153
  0
LINE
  8
0
 10
-103.367
 20
-103.153
 11
-103.139
 21
-103.339
  0
LINE
  8
0
 10
-103.139
 20
-103.339
 11
-102.953
 21
-103.567
  0
LINE
  8
0
 10
-102.953
 20
-103.567
 11
-102.814
 21
-103.826
  0
LINE
  8
0
 10
-102.814
 20
-103.826
 11
-102.729
 21
-104.107
  0
LINE
  8
0
 10
-102.729
 20
-104.107
 11
-102.7
 21
-104.4
  0
LINE
  8
0
 10
-102.7
 20
-104.4
 11
-102.729
 21
-104.693
  0
LINE
  8
0
 10
-102.729
 20
-104.693
 11
-102.814
 21
-104.974
  0
LINE
  8
0
 10
-102.814
 20
-104.974
 11
-102.953
 21
-105.233
  0
LINE
  8
0
 10
-102.953
 20
-105.233
 11
-103.139
 21
-105.461
  0
LINE
  8
0
 10
-103.139
 20
-105.461
 11
-103.367
 21
-105.647
  0
LINE
  8
0
 10
-103.367
 20
-105.647
 11
-103.626
 21
-105.786
  0
LINE
  8
0
 10
-103.626
 20
-105.786
 11
-103.907
 21
-105.871
  0
LINE
  8
0
 10
-103.907
 20
-105.871
 11
-104.2
 21
-105.9
  0
LINE
  8
0
 10
-104.2
 20
-105.9
 11
-104.493
 21
-105.871
  0
LINE
  8
0
 10
103.907
 20
-105.871
 11
103.626
 21
-105.786
  0
LINE
  8
0
 10
103.626
 20
-105.786
 11
103.367
 21
-105.647
  0
LINE
  8
0
 10
103.367
 20
-105.647
 11
103.139
 21
-105.461
  0
LINE
  8
0
 10
103.139
 20
-105.461
 11
102.953
 21
-105.233
  0
LINE
  8
0
 10
102.953
 20
-105.233
 11
102.814
 21
-104.974
  0
LINE
  8
0
 10
102.814
 20
-104.974
 11
102.729
 21
-104.693
  0
LINE
  8
0
 10
102.729
 20
-104.693
 11
102.7
 21
-104.4
  0
LINE
  8
0
 10
102.7
 20
-104.4
 11
102.729
 21
-104.107
  0
LINE
  8
0
 10
102.729
 20
-104.107
 11
102.814
 21
-103.826
  0
LINE
  8
0
 10
102.814
 20
-103.826
 11
102.953
 21
-103.567
  0
LINE
  8
0
 10
102.953
 20
-103.567
 11
103.139
 21
-103.339
  0
LINE
  8
0
 10
103.139
 20
-103.339
 11
103.367
 21
-103.153
  0
LINE
  8
0
 10
103.367
 20
-103.153
 11
103.626
 21
-103.014
  0
LINE
  8
0
 10
103.626
 20
-103.014
 11
103.907
 21
-102.929
  0
LINE
  8
0
 10
103.907
 20
-102.929
 11
104.2
 21
-102.9
  0
LINE
  8
0
 10
104.2
 20
-102.9
 11
104.493
 21
-102.929
  0
LINE
  8
0
 10
104.493
 20
-102.929
 11
104.774
 21
-103.014
  0
LINE
  8
0
 10
104.774
 20
-103.014
 11
105.033
 21
-103.153
  0
LINE
  8
0
 10
105.033
 20
-103.153
 11
105.261
 21
-103.339
  0
LINE
  8
0
 10
105.261
 20
-103.339
 11
105.447
 21
-103.567
  0
LINE
  8
0
 10
105.447
 20
-103.567
 11
105.586
 21
-103.826
  0
LINE
  8
0
 10
105.586
 20
-103.826
 11
105.671
 21
-104.107
  0
LINE
  8
0
 10
105.671
 20
-104.107
 11
105.7
 21
-104.4
  0
LINE
  8
0
 10
105.7
 20
-104.4
 11
105.671
 21
-104.693
  0
LINE
  8
0
 10
105.671
 20
-104.693
 11
105.586
 21
-104.974
  0
LINE
  8
0
 10
105.586
 20
-104.974
 11
105.447
 21
-105.233
  0
LINE
  8
0
 10
105.447
 20
-105.233
 11
105.261
 21
-105.461
  0
LINE
  8
0
 10
105.261
 20
-105.461
 11
105.033
 21
-105.647
  0
LINE
  8
0
 10
105.033
 20
-105.647
 11
104.774
 21
-105.786
  0
LINE
  8
0
 10
104.774
 20
-105.786
 11
104.493
 21
-105.871
  0
LINE
  8
0
 10
104.493
 20
-105.871
 11
104.2
 21
-105.9
  0
LINE
  8
0
 10
104.2
 20
-105.9
 11
103.907
 21
-105.871
  0
ENDSEC
  0
SECTION
  2
OBJECTS
  0
DICTIONARY
  0
ENDSEC
  0
EOF
